<svg width="495" height="495" viewBox="0 0 495 495" fill="none" xmlns="http://www.w3.org/2000/svg">
<g clip-path="url(#clip0_111_71)">
<line x1="-292.061" y1="284.938" x2="284.938" y2="-292.061" stroke="#7C5A7B" stroke-width="3"/>
<line x1="-283.575" y1="293.423" x2="293.424" y2="-283.576" stroke="#7C5A7B" stroke-width="3"/>
<line x1="-275.09" y1="301.909" x2="301.909" y2="-275.09" stroke="#7C5A7B" stroke-width="3"/>
<line x1="-266.605" y1="310.394" x2="310.394" y2="-266.605" stroke="#7C5A7B" stroke-width="3"/>
<line x1="-258.119" y1="318.88" x2="318.88" y2="-258.12" stroke="#7C5A7B" stroke-width="3"/>
<line x1="-249.634" y1="327.365" x2="327.365" y2="-249.634" stroke="#7C5A7B" stroke-width="3"/>
<line x1="-241.149" y1="335.85" x2="335.85" y2="-241.149" stroke="#7C5A7B" stroke-width="3"/>
<line x1="-232.664" y1="344.335" x2="344.335" y2="-232.664" stroke="#7C5A7B" stroke-width="3"/>
<line x1="-224.178" y1="352.82" x2="352.821" y2="-224.179" stroke="#7C5A7B" stroke-width="3"/>
<line x1="-215.693" y1="361.306" x2="361.306" y2="-215.693" stroke="#7C5A7B" stroke-width="3"/>
<line x1="-207.208" y1="369.791" x2="369.791" y2="-207.208" stroke="#7C5A7B" stroke-width="3"/>
<line x1="-198.723" y1="378.276" x2="378.277" y2="-198.723" stroke="#7C5A7B" stroke-width="3"/>
<line x1="-190.237" y1="386.762" x2="386.762" y2="-190.238" stroke="#7C5A7B" stroke-width="3"/>
<line x1="-181.752" y1="395.247" x2="395.247" y2="-181.752" stroke="#7C5A7B" stroke-width="3"/>
<line x1="-173.267" y1="403.732" x2="403.732" y2="-173.267" stroke="#7C5A7B" stroke-width="3"/>
<line x1="-164.781" y1="412.217" x2="412.218" y2="-164.782" stroke="#7C5A7B" stroke-width="3"/>
<line x1="-156.296" y1="420.703" x2="420.703" y2="-156.296" stroke="#7C5A7B" stroke-width="3"/>
<line x1="-147.811" y1="429.188" x2="429.188" y2="-147.811" stroke="#7C5A7B" stroke-width="3"/>
<line x1="-139.326" y1="437.673" x2="437.674" y2="-139.326" stroke="#7C5A7B" stroke-width="3"/>
<line x1="-130.84" y1="446.159" x2="446.159" y2="-130.841" stroke="#7C5A7B" stroke-width="3"/>
<line x1="-122.355" y1="454.644" x2="454.644" y2="-122.355" stroke="#7C5A7B" stroke-width="3"/>
<line x1="-113.87" y1="463.129" x2="463.129" y2="-113.87" stroke="#7C5A7B" stroke-width="3"/>
<line x1="-105.384" y1="471.614" x2="471.615" y2="-105.385" stroke="#7C5A7B" stroke-width="3"/>
<line x1="-96.899" y1="480.1" x2="480.1" y2="-96.8994" stroke="#7C5A7B" stroke-width="3"/>
<line x1="-88.4139" y1="488.585" x2="488.585" y2="-88.414" stroke="#7C5A7B" stroke-width="3"/>
<line x1="-79.9286" y1="497.07" x2="497.071" y2="-79.9287" stroke="#7C5A7B" stroke-width="3"/>
<line x1="-71.4432" y1="505.556" x2="505.556" y2="-71.4436" stroke="#7C5A7B" stroke-width="3"/>
<line x1="-62.9581" y1="514.041" x2="514.041" y2="-62.9582" stroke="#7C5A7B" stroke-width="3"/>
<line x1="-54.4728" y1="522.526" x2="522.526" y2="-54.4729" stroke="#7C5A7B" stroke-width="3"/>
<line x1="-45.9874" y1="531.012" x2="531.012" y2="-45.9875" stroke="#7C5A7B" stroke-width="3"/>
<line x1="-37.5021" y1="539.497" x2="539.497" y2="-37.5022" stroke="#7C5A7B" stroke-width="3"/>
<line x1="-29.017" y1="547.982" x2="547.982" y2="-29.0168" stroke="#7C5A7B" stroke-width="3"/>
<line x1="-20.5316" y1="556.468" x2="556.468" y2="-20.5315" stroke="#7C5A7B" stroke-width="3"/>
<line x1="-12.0463" y1="564.953" x2="564.953" y2="-12.0466" stroke="#7C5A7B" stroke-width="3"/>
<line x1="-3.56115" y1="573.438" x2="573.438" y2="-3.56125" stroke="#7C5A7B" stroke-width="3"/>
<line x1="4.9242" y1="581.923" x2="581.923" y2="4.9241" stroke="#7C5A7B" stroke-width="3"/>
<line x1="13.4096" y1="590.409" x2="590.409" y2="13.4095" stroke="#7C5A7B" stroke-width="3"/>
<line x1="21.8949" y1="598.894" x2="598.894" y2="21.8948" stroke="#7C5A7B" stroke-width="3"/>
<line x1="30.38" y1="607.379" x2="607.379" y2="30.3802" stroke="#7C5A7B" stroke-width="3"/>
<line x1="38.8654" y1="615.865" x2="615.865" y2="38.8655" stroke="#7C5A7B" stroke-width="3"/>
<line x1="47.3507" y1="624.349" x2="624.35" y2="47.3504" stroke="#7C5A7B" stroke-width="3"/>
<line x1="55.8358" y1="632.835" x2="632.835" y2="55.8357" stroke="#7C5A7B" stroke-width="3"/>
<line x1="64.3212" y1="641.32" x2="641.32" y2="64.3211" stroke="#7C5A7B" stroke-width="3"/>
<line x1="72.8065" y1="649.806" x2="649.806" y2="72.8064" stroke="#7C5A7B" stroke-width="3"/>
<line x1="81.2919" y1="658.291" x2="658.291" y2="81.2918" stroke="#7C5A7B" stroke-width="3"/>
<line x1="89.777" y1="666.776" x2="666.776" y2="89.7771" stroke="#7C5A7B" stroke-width="3"/>
<line x1="98.2623" y1="675.261" x2="675.261" y2="98.262" stroke="#7C5A7B" stroke-width="3"/>
<line x1="106.748" y1="683.746" x2="683.747" y2="106.747" stroke="#7C5A7B" stroke-width="3"/>
<line x1="115.233" y1="692.232" x2="692.232" y2="115.233" stroke="#7C5A7B" stroke-width="3"/>
<line x1="123.718" y1="700.717" x2="700.717" y2="123.718" stroke="#7C5A7B" stroke-width="3"/>
<line x1="132.203" y1="709.203" x2="709.203" y2="132.203" stroke="#7C5A7B" stroke-width="3"/>
<line x1="140.689" y1="717.688" x2="717.688" y2="140.689" stroke="#7C5A7B" stroke-width="3"/>
<line x1="149.174" y1="726.173" x2="726.173" y2="149.174" stroke="#7C5A7B" stroke-width="3"/>
<line x1="157.659" y1="734.659" x2="734.658" y2="157.659" stroke="#7C5A7B" stroke-width="3"/>
<line x1="166.145" y1="743.144" x2="743.144" y2="166.145" stroke="#7C5A7B" stroke-width="3"/>
<line x1="174.63" y1="751.629" x2="751.629" y2="174.63" stroke="#7C5A7B" stroke-width="3"/>
<line x1="183.115" y1="760.114" x2="760.114" y2="183.115" stroke="#7C5A7B" stroke-width="3"/>
<line x1="191.6" y1="768.599" x2="768.6" y2="191.6" stroke="#7C5A7B" stroke-width="3"/>
<line x1="200.086" y1="777.085" x2="777.085" y2="200.086" stroke="#7C5A7B" stroke-width="3"/>
<line x1="208.571" y1="785.57" x2="785.57" y2="208.571" stroke="#7C5A7B" stroke-width="3"/>
</g>
<defs>
<clipPath id="clip0_111_71">
<rect width="495" height="495" fill="white"/>
</clipPath>
</defs>
</svg>
